<svg xmlns="http://www.w3.org/2000/svg" version="1.1" xmlns:xlink="http://www.w3.org/1999/xlink" xmlns:svgjs="http://svgjs.dev/svgjs" width="2000" height="540" viewBox="0 0 2000 540"><g transform="matrix(1,0,0,1,-1.2121212121212466,-0.1718678597534904)"><svg viewBox="0 0 396 107" data-background-color="#ffffff" preserveAspectRatio="xMidYMid meet" height="540" width="2000" xmlns="http://www.w3.org/2000/svg" xmlns:xlink="http://www.w3.org/1999/xlink"><g id="tight-bounds" transform="matrix(1,0,0,1,0.2400000000000091,0.03405529813633734)"><svg viewBox="0 0 395.52 106.93188940372733" height="106.93188940372733" width="395.52"><g><svg viewBox="0 0 620.4887174418915 167.75392119173986" height="106.93188940372733" width="395.52"><g transform="matrix(1,0,0,1,222.9911174418916,43.34558465198836)"><svg viewBox="0 0 397.4975999999999 81.06275188776314" height="81.06275188776314" width="397.4975999999999"><g id="textblocktransform"><svg viewBox="0 0 397.4975999999999 81.06275188776314" height="81.06275188776314" width="397.4975999999999" id="textblock"><g><rect width="397.4975999999999" height="4.480513523666601" x="0" y="54.961638645280786" fill="#77d4fc" opacity="1" stroke-width="0" stroke="transparent" fill-opacity="1" class="rect-yte-0" data-fill-palette-color="primary" rx="1%" id="yte-0" data-palette-color="#77d4fc"></rect></g><g transform="matrix(1,0,0,1,0.9887999999999693,0)"><svg viewBox="0 0 395.52 49.68354679802955" height="49.68354679802955" width="395.52"><g transform="matrix(1,0,0,1,0,0)"><svg width="395.52" viewBox="0.45 -32.45 263.88 33.150000000000006" height="49.68354679802955" data-palette-color="#77d4fc"><path d="M6.25 0.2L6.65-1.95Q9.15-2.15 10.1-2.58 11.05-3 11.35-4.13 11.65-5.25 11.65-8.1L11.65-8.1 11.65-29.9Q7.4-29.75 5.88-29.43 4.35-29.1 3.8-27.98 3.25-26.85 2.8-23.6L2.8-23.6 0.45-23.4Q1.05-28.15 1.2-32.05L1.2-32.05 1.65-32.45 5.8-31.9 21.3-31.9 25.55-32.45 26-32.05Q26.15-27.95 26.75-23.6L26.75-23.6 24.4-23.4Q23.85-26.7 23.3-27.85 22.75-29 21.35-29.35 19.95-29.7 15.95-29.9L15.95-29.9Q15.65-26.9 15.4-19.3 15.15-11.7 15.15-5.6L15.15-5.6Q15.15-3.75 15.8-2.98 16.45-2.2 18-2.2L18-2.2Q19.5-2.2 20.75-2.35L20.75-2.35 20.9-2.15 20.45 0.15 18.8 0.1 13.1 0Q10.35 0 6.25 0.2L6.25 0.2ZM40.25 0.45Q36.85 0.45 34.22-1.05 31.6-2.55 30.17-5.3 28.75-8.05 28.75-11.65L28.75-11.65Q28.75-15.55 30.52-18.68 32.3-21.8 35.37-23.58 38.45-25.35 42.25-25.35L42.25-25.35Q45.7-25.35 48.35-23.85 51-22.35 52.45-19.63 53.9-16.9 53.9-13.3L53.9-13.3Q53.9-9.4 52.12-6.28 50.35-3.15 47.22-1.35 44.1 0.45 40.25 0.45L40.25 0.45ZM41.45-1.95Q45.1-1.95 47.35-4.58 49.6-7.2 49.6-11.55L49.6-11.55Q49.6-14.85 48.52-17.35 47.45-19.85 45.47-21.2 43.5-22.55 40.9-22.55L40.9-22.55Q37.35-22.55 35.17-19.95 33-17.35 33-13L33-13Q33-9.7 34.05-7.2 35.1-4.7 37.02-3.33 38.95-1.95 41.45-1.95L41.45-1.95ZM69.8 0.45Q65.34 0.45 63.02-1.75 60.7-3.95 60.7-8.1L60.7-8.1 60.7-20.85Q60.7-22.1 60.4-22.53 60.09-22.95 59.2-22.95L59.2-22.95 57.84-22.9 57.74-23.05 58.05-25Q58.59-25 60.05-24.95 61.5-24.9 63-24.9L63-24.9Q64.09-24.9 65.55-25.03 67-25.15 67.44-25.2L67.44-25.2 67.25-23.2Q65.8-23 65.3-22.55 64.8-22.1 64.69-21L64.69-21 64.39-9.55Q64.39-6 66.05-4.08 67.69-2.15 70.8-2.15L70.8-2.15Q73.94-2.15 75.57-3.73 77.19-5.3 77.19-8.3L77.19-8.3Q77.19-11.4 77.12-15.33 77.05-19.25 77-20.85L77-20.85Q76.9-22.2 76.65-22.58 76.4-22.95 75.55-22.95L75.55-22.95 73.84-22.9 73.8-23.05 74.09-25Q74.59-25 75.97-24.95 77.34-24.9 78.75-24.9L78.75-24.9Q79.9-24.9 81.22-25.03 82.55-25.15 82.94-25.2L82.94-25.2 82.8-23.2Q81.05-22.95 80.55-22.55 80.05-22.15 80.05-21.05L80.05-21.05 80.05-8.25Q80.05-4.1 77.37-1.83 74.69 0.45 69.8 0.45L69.8 0.45ZM106.24 0.6Q105.14 0.6 103.99-0.38 102.84-1.35 101.89-3.05L101.89-3.05 97.69-10.4 94.44-10.4 94.34-5.05Q94.34-3.6 94.54-2.98 94.74-2.35 95.32-2.15 95.89-1.95 97.29-1.9L97.29-1.9 97.39-1.75 96.99 0.15Q96.39 0.1 94.82 0.08 93.24 0.05 91.64 0.05L91.64 0.05Q90.09 0.05 88.94 0.1 87.79 0.15 87.39 0.2L87.39 0.2 87.74-1.85Q89.59-2.1 90.19-2.7 90.79-3.3 90.79-4.95L90.79-4.95 90.84-20.9Q90.84-22.1 90.54-22.53 90.24-22.95 89.39-22.95L89.39-22.95 87.99-22.9 87.84-23.1 88.14-25Q88.64-25 90.04-24.95 91.44-24.9 92.84-24.9L92.84-24.9Q94.29-24.9 95.94-24.98 97.59-25.05 98.19-25.05L98.19-25.05Q102.24-25.05 104.54-23.38 106.84-21.7 106.84-18.75L106.84-18.75Q106.84-16.45 105.29-14.5 103.74-12.55 100.94-11.3L100.94-11.3 105.19-4.9Q106.39-3.1 107.49-2.35 108.59-1.6 110.14-1.6L110.14-1.6 110.34-1.35 110.09 0.2 106.24 0.6ZM98.59-12.6Q99.54-13 100.27-13.38 100.99-13.75 101.89-14.95 102.79-16.15 102.79-18.05L102.79-18.05Q102.79-22.9 95.64-22.9L95.64-22.9Q95.24-22.9 95.09-22.73 94.94-22.55 94.94-22L94.94-22Q94.54-15.9 94.54-13L94.54-13 98.59-12.6ZM113.79 0.45L114.04-1.6Q115.94-1.95 116.59-2.63 117.24-3.3 117.24-4.95L117.24-4.95 117.29-20.85Q117.29-22.1 116.99-22.53 116.69-22.95 115.79-22.95L115.79-22.95 114.14-22.9 114.04-23.1 114.29-25Q114.59-25 115.92-24.95 117.24-24.9 119.39-24.9L119.39-24.9Q120.54-24.9 122.22-25.05 123.89-25.2 124.39-25.25L124.39-25.25 124.19-23.2Q122.54-23 121.99-22.58 121.44-22.15 121.34-21L121.34-21Q121.14-17 120.97-12.15 120.79-7.3 120.79-4.65L120.79-4.65Q120.79-3.05 121.14-2.5 121.49-1.95 122.54-1.95L122.54-1.95Q123.24-1.95 123.81-2 124.39-2.05 124.59-2.1L124.59-2.1 124.69-1.9 124.34 0.1Q123.74 0.1 122.09 0.05 120.44 0 118.79 0L118.79 0Q117.44 0 115.86 0.18 114.29 0.35 113.79 0.45L113.79 0.45ZM136.64 0.45Q134.89 0.45 133.41 0.15 131.94-0.15 131.06-0.48 130.19-0.8 129.99-0.9L129.99-0.9 129.74-1.35Q129.79-1.6 129.91-2.48 130.04-3.35 130.16-4.93 130.29-6.5 130.29-8.1L130.29-8.1 132.54-8.3Q132.54-5.6 132.96-4.28 133.39-2.95 134.44-2.45 135.49-1.95 137.64-1.95L137.64-1.95Q140.04-1.95 141.51-3 142.99-4.05 142.99-5.8L142.99-5.8Q142.99-6.95 142.16-7.83 141.34-8.7 140.26-9.3 139.19-9.9 136.84-11.05L136.84-11.05Q133.64-12.6 131.91-14.1 130.19-15.6 130.19-17.95L130.19-17.95Q130.19-20.05 131.46-21.75 132.74-23.45 134.99-24.4 137.24-25.35 139.99-25.35L139.99-25.35Q141.64-25.35 143.09-25.15 144.54-24.95 145.39-24.73 146.24-24.5 146.44-24.4L146.44-24.4 146.64-24.05Q146.54-23.5 146.19-21.58 145.84-19.65 145.69-17.45L145.69-17.45 143.74-17.25 143.44-17.45Q143.44-17.6 143.49-18.07 143.54-18.55 143.54-19.25L143.54-19.25Q143.54-21.2 142.51-21.98 141.49-22.75 138.89-22.75L138.89-22.75Q136.79-22.75 135.41-21.78 134.04-20.8 134.04-19.3L134.04-19.3Q134.04-17.8 135.41-16.75 136.79-15.7 139.59-14.35L139.59-14.35Q142.04-13.2 143.51-12.35 144.99-11.5 146.04-10.2 147.09-8.9 147.09-7.2L147.09-7.2Q147.09-4.95 145.76-3.23 144.44-1.5 142.06-0.53 139.69 0.45 136.64 0.45L136.64 0.45ZM166.59 0.7Q161.54-13 159.04-19.35L159.04-19.35 158.79-19.35Q158.59-16.95 158.06-10.4 157.54-3.85 157.54-3.2L157.54-3.2Q157.54-2.55 157.84-2.27 158.14-2 158.84-2L158.84-2 160.44-2 160.54-1.85 160.19 0.15Q159.74 0.15 158.46 0.08 157.19 0 155.94 0L155.94 0Q154.94 0 153.79 0.13 152.64 0.25 152.29 0.3L152.29 0.3 152.49-1.75Q153.79-1.9 154.34-2.53 154.89-3.15 155.09-4.7L155.09-4.7Q155.49-8.1 156.16-14.25 156.84-20.4 156.84-21.15L156.84-21.15Q156.84-22.15 156.06-22.63 155.29-23.1 153.39-23.2L153.39-23.2 153.24-23.45 153.59-25.1Q154.14-25.05 155.54-24.98 156.94-24.9 158.24-24.9L158.24-24.9Q159.34-24.9 160.26-24.95 161.19-25 161.49-25.05L161.49-25.05Q162.99-20.4 164.41-16.32 165.84-12.25 166.76-9.83 167.69-7.4 167.94-6.8L167.94-6.8 168.19-6.8Q168.74-8.2 170.66-13.35 172.59-18.5 174.84-24.95L174.84-24.95Q175.14-25 175.61-24.98 176.09-24.95 176.54-24.95L176.54-24.95Q177.09-24.9 178.14-24.9L178.14-24.9Q178.94-24.9 180.46-25 181.99-25.1 182.49-25.15L182.49-25.15 182.59-25 182.34-23.25Q180.59-23.05 179.89-22.58 179.19-22.1 179.19-21.1L179.19-21.1Q179.19-20.1 179.54-14.75 179.89-9.4 180.24-5.65L180.24-5.65Q180.49-3.4 180.89-2.7 181.29-2 182.24-2L182.24-2 183.39-2.05 183.49-1.9 183.14 0.1Q182.74 0.1 181.59 0.05 180.44 0 179.14 0L179.14 0Q177.84 0 176.19 0.15 174.54 0.3 174.44 0.3L174.44 0.3 174.64-1.75Q175.94-1.9 176.49-2.35 177.04-2.8 177.04-3.7L177.04-3.7Q177.04-4.6 176.51-10.85 175.99-17.1 175.79-19.35L175.79-19.35 175.54-19.35Q172.59-11.8 168.04 0.4L168.04 0.4 166.59 0.7ZM198.83 0.45Q195.43 0.45 192.81-1.05 190.18-2.55 188.76-5.3 187.33-8.05 187.33-11.65L187.33-11.65Q187.33-15.55 189.11-18.68 190.88-21.8 193.96-23.58 197.03-25.35 200.83-25.35L200.83-25.35Q204.28-25.35 206.93-23.85 209.58-22.35 211.03-19.63 212.48-16.9 212.48-13.3L212.48-13.3Q212.48-9.4 210.71-6.28 208.93-3.15 205.81-1.35 202.68 0.45 198.83 0.45L198.83 0.45ZM200.03-1.95Q203.68-1.95 205.93-4.58 208.18-7.2 208.18-11.55L208.18-11.55Q208.18-14.85 207.11-17.35 206.03-19.85 204.06-21.2 202.08-22.55 199.48-22.55L199.48-22.55Q195.93-22.55 193.76-19.95 191.58-17.35 191.58-13L191.58-13Q191.58-9.7 192.63-7.2 193.68-4.7 195.61-3.33 197.53-1.95 200.03-1.95L200.03-1.95ZM216.98 0.15L216.33-1.25 231.38-22.8 224.78-22.55Q221.98-22.4 220.86-21.3 219.73-20.2 219.43-17.35L219.43-17.35 217.13-17.15Q217.23-17.85 217.51-20.3 217.78-22.75 217.83-25L217.83-25 218.28-25.4 225.48-24.95 236.38-24.7 236.93-23.45Q231.98-17.25 227.76-11.25 223.53-5.25 221.38-1.95L221.38-1.95 229.18-2.3Q231.28-2.4 232.56-3.9 233.83-5.4 234.43-8.6L234.43-8.6 236.78-8.85Q236.63-8.1 236.26-5.5 235.88-2.9 235.73-0.55L235.73-0.55 235.08 0.1 219.93-0.1 216.98 0.15ZM253.23 0.35L253.08 0.1 253.23-1.7Q255.33-1.85 256.05-2.15 256.78-2.45 256.78-3.15L256.78-3.15Q256.78-3.95 256.43-4.85L256.43-4.85 255.23-8.7Q254.23-8.75 251.08-8.75L251.08-8.75Q249.63-8.75 246.78-8.45L246.78-8.45 245.38-4.75Q245.03-3.6 245.03-3.35L245.03-3.35Q245.03-2.55 245.58-2.2 246.13-1.85 247.38-1.85L247.38-1.85 249.53-1.85 249.68-1.65 249.38 0.25Q248.88 0.2 247.1 0.1 245.33 0 243.63 0L243.63 0Q242.03 0 240.75 0.05 239.48 0.1 239.03 0.1L239.03 0.1 239.33-1.95Q240.43-2.1 241.08-2.73 241.73-3.35 242.38-4.85L242.38-4.85 250.23-24.7 253.78-25.35 254.13-25.3Q254.13-25.1 256.4-17.4 258.68-9.7 260.48-4.65L260.48-4.65Q260.98-3.2 261.75-2.63 262.53-2.05 264.23-1.9L264.23-1.9 264.33-1.7 264.08 0.1Q263.58 0.1 262.23 0.05 260.88 0 259.53 0L259.53 0Q257.48 0 255.63 0.15 253.78 0.3 253.23 0.35L253.23 0.35ZM247.58-10.8L250.98-10.8Q252.73-10.8 254.63-11L254.63-11 251.58-20.7 251.23-20.7 247.58-10.8Z" opacity="1" transform="matrix(1,0,0,1,0,0)" fill="#77d4fc" class="wordmark-text-0" data-fill-palette-color="primary" id="text-0"></path></svg></g></svg></g><g transform="matrix(1,0,0,1,0,64.72024401619862)"><svg viewBox="0 0 375.74399999999997 16.34250787156453" height="16.34250787156453" width="375.74399999999997"><g transform="matrix(1,0,0,1,0,0)"><svg width="375.74399999999997" viewBox="3.85 -36.75 1124.18 48.900000000000006" height="16.34250787156453" data-palette-color="#77d4fc"><path d="M3.85 0L3.85-36.75 19.95-36.75 19.95-31.85 9.4-31.85 9.4-21.7 17.9-21.7 17.9-16.7 9.4-16.7 9.4-4.95 21.6-4.95 21.6 0 3.85 0ZM26.9 0L26.9-22.95 32.3-22.95 32.3-18.8Q33.4-21.15 35.52-22.35 37.65-23.55 40.4-23.55L40.4-23.55Q46.55-23.5 47.95-19.3L47.95-19.3Q49.05-21.25 51.25-22.4 53.45-23.55 55.9-23.55L55.9-23.55Q59.5-23.55 61.35-22.18 63.2-20.8 63.82-18.28 64.45-15.75 64.45-11.5L64.45-11.5 64.45 0 59 0 59-11.55Q59-15.6 58.17-17.35 57.35-19.1 55-19.1L55-19.1Q51.85-19.1 50.22-16.98 48.6-14.85 48.6-11.4L48.6-11.4 48.6 0 43.2 0 43.2-12.35Q43.2-15 43-16.3 42.8-17.6 41.9-18.35 41-19.1 39-19.1L39-19.1Q37.25-19.1 35.72-18.05 34.2-17 33.27-15.23 32.35-13.45 32.35-11.4L32.35-11.4 32.35 0 26.9 0ZM84.95 0.5Q82.15 0.5 79.92-0.88 77.7-2.25 76.84-4.05L76.84-4.05 76.75 0 71.55 0 71.55-36.75 76.84-36.75 76.84-22.6 76.59-18.7Q77.45-20.7 79.92-22.13 82.4-23.55 85.3-23.55L85.3-23.55Q88.7-23.55 91.22-22.03 93.75-20.5 95.09-17.78 96.45-15.05 96.45-11.45L96.45-11.45Q96.45-7.8 94.87-5.1 93.3-2.4 90.67-0.95 88.05 0.5 84.95 0.5L84.95 0.5ZM84.05-4Q87.3-4 89.05-6.08 90.8-8.15 90.8-11.45L90.8-11.45Q90.8-14.8 89.07-16.88 87.34-18.95 84.05-18.95L84.05-18.95Q81.2-18.95 79.25-16.98 77.3-15 77.3-11.8L77.3-11.8 77.3-11.45Q77.3-9.3 78.22-7.6 79.15-5.9 80.67-4.95 82.2-4 84.05-4L84.05-4ZM102.04 0L102.04-22.95 107.44-22.95 107.44-18.45Q108.24-20.75 110.04-22.15 111.84-23.55 114.14-23.55L114.14-23.55Q115.74-23.55 116.34-23.25L116.34-23.25 115.59-17.8Q115.14-18.1 113.64-18.1L113.64-18.1Q111.29-18.1 109.37-16.6 107.44-15.1 107.44-11.8L107.44-11.8 107.44 0 102.04 0ZM130.29 0.5Q127.19 0.5 124.57-0.98 121.94-2.45 120.37-5.18 118.79-7.9 118.79-11.55L118.79-11.55Q118.79-15.15 120.17-17.85 121.54-20.55 124.09-22.05 126.64-23.55 130.09-23.55L130.09-23.55Q132.09-23.55 133.84-22.85 135.59-22.15 136.79-21.13 137.99-20.1 138.39-19.1L138.39-19.1 138.49-22.95 143.64-22.95 143.64 0 138.54 0 138.44-4.05Q137.59-2.25 135.34-0.88 133.09 0.5 130.29 0.5L130.29 0.5ZM131.19-4Q134.04-4 135.99-5.98 137.94-7.95 137.94-11.15L137.94-11.15 137.94-11.5Q137.94-13.65 137.04-15.35 136.14-17.05 134.59-18 133.04-18.95 131.19-18.95L131.19-18.95Q127.99-18.95 126.24-16.88 124.49-14.8 124.49-11.5L124.49-11.5Q124.49-8.15 126.22-6.08 127.94-4 131.19-4L131.19-4ZM161.59 0.5Q158.19 0.5 155.46-0.98 152.74-2.45 151.14-5.23 149.54-8 149.54-11.75L149.54-11.75Q149.54-15.3 151.01-17.98 152.49-20.65 155.16-22.1 157.84-23.55 161.34-23.55L161.34-23.55Q163.99-23.55 165.91-22.88 167.84-22.2 168.94-21.2L168.94-21.2 166.54-16.85Q164.44-18.95 161.79-18.95L161.79-18.95Q158.59-18.95 156.91-17 155.24-15.05 155.24-11.8L155.24-11.8Q155.24-8.1 156.96-6.05 158.69-4 161.79-4L161.79-4Q163.34-4 164.81-4.45 166.29-4.9 167.09-5.5L167.09-5.5 169.04-1.7Q167.94-0.85 165.96-0.18 163.99 0.5 161.59 0.5L161.59 0.5ZM185.04 0.5Q180.94 0.5 178.19-1.13 175.44-2.75 174.14-5.48 172.84-8.2 172.84-11.45L172.84-11.45Q172.84-15.1 174.36-17.85 175.89-20.6 178.59-22.08 181.29-23.55 184.69-23.55L184.69-23.55Q189.99-23.55 192.56-20.63 195.14-17.7 195.14-12.4L195.14-12.4Q195.14-11.05 194.99-9.6L194.99-9.6 178.49-9.6Q179.04-6.55 180.66-5.2 182.29-3.85 185.19-3.85L185.19-3.85Q187.59-3.85 189.14-4.25 190.69-4.65 191.99-5.35L191.99-5.35 193.64-1.5Q192.39-0.7 190.24-0.1 188.09 0.5 185.04 0.5L185.04 0.5ZM178.49-13.35L189.89-13.35Q189.94-16.45 188.54-17.73 187.14-19 184.54-19L184.54-19Q179.29-19 178.49-13.35L178.49-13.35ZM215.03 0L215.03-18.55 210.98-18.55 210.98-22.95 215.03-22.95 215.03-32.3 220.48-33.5 220.48-22.95 225.78-22.95 225.78-18.55 220.48-18.55 220.48 0 215.03 0ZM230.43 0L230.43-36.75 235.68-36.75 235.68-22.95 235.48-18.7Q236.43-20.8 238.53-22.18 240.63-23.55 243.43-23.55L243.43-23.55Q246.98-23.55 248.88-22.08 250.78-20.6 251.43-17.95 252.08-15.3 252.08-11.05L252.08-11.05 252.08 0 246.73 0 246.73-11.1Q246.73-14 246.4-15.65 246.08-17.3 245.1-18.15 244.13-19 242.28-19L242.28-19Q240.78-19 239.25-18.1 237.73-17.2 236.73-15.48 235.73-13.75 235.73-11.4L235.73-11.4 235.73 0 230.43 0ZM269.78 0.5Q265.68 0.5 262.93-1.13 260.18-2.75 258.88-5.48 257.58-8.2 257.58-11.45L257.58-11.45Q257.58-15.1 259.1-17.85 260.63-20.6 263.33-22.08 266.03-23.55 269.43-23.55L269.43-23.55Q274.73-23.55 277.3-20.63 279.88-17.7 279.88-12.4L279.88-12.4Q279.88-11.05 279.73-9.6L279.73-9.6 263.23-9.6Q263.78-6.55 265.4-5.2 267.03-3.85 269.93-3.85L269.93-3.85Q272.33-3.85 273.88-4.25 275.43-4.65 276.73-5.35L276.73-5.35 278.38-1.5Q277.13-0.7 274.98-0.1 272.83 0.5 269.78 0.5L269.78 0.5ZM263.23-13.35L274.63-13.35Q274.68-16.45 273.28-17.73 271.88-19 269.28-19L269.28-19Q264.03-19 263.23-13.35L263.23-13.35ZM310.77 0.5Q303.87 0.5 300.77-3.65 297.67-7.8 297.67-15.7L297.67-15.7 297.67-36.75 303.27-36.75 303.27-15.6Q303.27-9.75 305.02-7.23 306.77-4.7 310.77-4.7L310.77-4.7Q314.77-4.7 316.5-7.18 318.22-9.65 318.22-15.6L318.22-15.6 318.22-36.75 323.87-36.75 323.87-15.7Q323.87-7.85 320.6-3.68 317.32 0.5 310.77 0.5L310.77 0.5ZM330.87 0L330.87-22.95 336.17-22.95 336.22-18.75Q337.17-20.85 339.22-22.2 341.27-23.55 344.02-23.55L344.02-23.55Q347.57-23.55 349.47-22.08 351.37-20.6 352.02-17.95 352.67-15.3 352.67-11.05L352.67-11.05 352.67 0 347.27 0 347.27-10.9Q347.27-15.25 346.42-17.18 345.57-19.1 342.92-19.1L342.92-19.1Q341.42-19.1 339.87-18.18 338.32-17.25 337.29-15.5 336.27-13.75 336.27-11.4L336.27-11.4 336.27 0 330.87 0ZM370.47 0.5Q366.37 0.5 363.62-1.13 360.87-2.75 359.57-5.48 358.27-8.2 358.27-11.45L358.27-11.45Q358.27-15.1 359.79-17.85 361.32-20.6 364.02-22.08 366.72-23.55 370.12-23.55L370.12-23.55Q375.42-23.55 377.99-20.63 380.57-17.7 380.57-12.4L380.57-12.4Q380.57-11.05 380.42-9.6L380.42-9.6 363.92-9.6Q364.47-6.55 366.09-5.2 367.72-3.85 370.62-3.85L370.62-3.85Q373.02-3.85 374.57-4.25 376.12-4.65 377.42-5.35L377.42-5.35 379.07-1.5Q377.82-0.7 375.67-0.1 373.52 0.5 370.47 0.5L370.47 0.5ZM363.92-13.35L375.32-13.35Q375.37-16.45 373.97-17.73 372.57-19 369.97-19L369.97-19Q364.72-19 363.92-13.35L363.92-13.35ZM383.21 0L391.81-11.9 383.76-22.95 390.16-22.95 394.86-15.85 399.31-22.95 405.86-22.95 397.76-12.2 406.56 0 400.36 0 394.91-8.1 389.71 0 383.21 0ZM410.81 12.15L410.81-22.95 416.01-22.95 416.01-18.7Q418.76-23.55 424.61-23.55L424.61-23.55Q429.46-23.55 432.46-20.48 435.46-17.4 435.46-11.6L435.46-11.6Q435.46-8 433.99-5.25 432.51-2.5 429.99-1 427.46 0.5 424.36 0.5L424.36 0.5Q421.46 0.5 419.34-0.53 417.21-1.55 416.01-3.45L416.01-3.45 416.06 12.15 410.81 12.15ZM423.11-4.05Q426.36-4.05 428.11-6.13 429.86-8.2 429.86-11.45L429.86-11.45Q429.86-14.85 428.14-16.88 426.41-18.9 423.11-18.9L423.11-18.9Q421.31-18.9 419.74-18.03 418.16-17.15 417.24-15.53 416.31-13.9 416.31-11.75L416.31-11.75 416.31-11.4Q416.31-9.25 417.24-7.58 418.16-5.9 419.71-4.98 421.26-4.05 423.11-4.05L423.11-4.05ZM452.06 0.5Q447.96 0.5 445.21-1.13 442.46-2.75 441.16-5.48 439.86-8.2 439.86-11.45L439.86-11.45Q439.86-15.1 441.38-17.85 442.91-20.6 445.61-22.08 448.31-23.55 451.71-23.55L451.71-23.55Q457.01-23.55 459.58-20.63 462.16-17.7 462.16-12.4L462.16-12.4Q462.16-11.05 462.01-9.6L462.01-9.6 445.51-9.6Q446.06-6.55 447.68-5.2 449.31-3.85 452.21-3.85L452.21-3.85Q454.61-3.85 456.16-4.25 457.71-4.65 459.01-5.35L459.01-5.35 460.66-1.5Q459.41-0.7 457.26-0.1 455.11 0.5 452.06 0.5L452.06 0.5ZM445.51-13.35L456.91-13.35Q456.96-16.45 455.56-17.73 454.16-19 451.56-19L451.56-19Q446.31-19 445.51-13.35L445.51-13.35ZM478.51 0.5Q475.11 0.5 472.38-0.98 469.66-2.45 468.06-5.23 466.46-8 466.46-11.75L466.46-11.75Q466.46-15.3 467.93-17.98 469.41-20.65 472.08-22.1 474.76-23.55 478.26-23.55L478.26-23.55Q480.91-23.55 482.83-22.88 484.76-22.2 485.86-21.2L485.86-21.2 483.46-16.85Q481.36-18.95 478.71-18.95L478.71-18.95Q475.51-18.95 473.83-17 472.16-15.05 472.16-11.8L472.16-11.8Q472.16-8.1 473.88-6.05 475.61-4 478.71-4L478.71-4Q480.26-4 481.73-4.45 483.21-4.9 484.01-5.5L484.01-5.5 485.96-1.7Q484.86-0.85 482.88-0.18 480.91 0.5 478.51 0.5L478.51 0.5ZM493.1 0L493.1-18.55 489.05-18.55 489.05-22.95 493.1-22.95 493.1-32.3 498.55-33.5 498.55-22.95 503.85-22.95 503.85-18.55 498.55-18.55 498.55 0 493.1 0ZM519.1 0.5Q515 0.5 512.25-1.13 509.5-2.75 508.2-5.48 506.9-8.2 506.9-11.45L506.9-11.45Q506.9-15.1 508.43-17.85 509.95-20.6 512.65-22.08 515.35-23.55 518.75-23.55L518.75-23.55Q524.05-23.55 526.63-20.63 529.2-17.7 529.2-12.4L529.2-12.4Q529.2-11.05 529.05-9.6L529.05-9.6 512.55-9.6Q513.1-6.55 514.73-5.2 516.35-3.85 519.25-3.85L519.25-3.85Q521.65-3.85 523.2-4.25 524.75-4.65 526.05-5.35L526.05-5.35 527.7-1.5Q526.45-0.7 524.3-0.1 522.15 0.5 519.1 0.5L519.1 0.5ZM512.55-13.35L523.95-13.35Q524-16.45 522.6-17.73 521.2-19 518.6-19L518.6-19Q513.35-19 512.55-13.35L512.55-13.35ZM545 0.5Q541.9 0.5 539.27-0.98 536.65-2.45 535.07-5.18 533.5-7.9 533.5-11.55L533.5-11.55Q533.5-17 536.55-20.28 539.6-23.55 544.8-23.55L544.8-23.55Q547.7-23.55 550.1-22.13 552.5-20.7 553.35-18.7L553.35-18.7 553.1-22.6 553.1-36.75 558.4-36.75 558.4 0 553.25 0 553.15-4.05Q552.3-2.25 550.05-0.88 547.8 0.5 545 0.5L545 0.5ZM545.9-4.05Q548.75-4.05 550.7-6.03 552.65-8 552.65-11.2L552.65-11.2 552.65-11.55Q552.65-13.7 551.75-15.4 550.85-17.1 549.3-18.05 547.75-19 545.9-19L545.9-19Q542.7-19 540.95-16.93 539.2-14.85 539.2-11.55L539.2-11.55Q539.2-8.2 540.92-6.13 542.65-4.05 545.9-4.05L545.9-4.05ZM564.6 8.35Q566.6 4.05 567.65 0.4L567.65 0.4Q565.3-0.35 565.3-3.05L565.3-3.05Q565.3-4.6 566.32-5.63 567.35-6.65 568.9-6.65L568.9-6.65Q570.5-6.65 571.45-5.48 572.4-4.3 572.4-2.1L572.4-2.1Q572.4 0.15 571.02 3 569.65 5.85 567.85 8.35L567.85 8.35 564.6 8.35ZM591.94 0L591.94-36.75 608.04-36.75 608.04-31.85 597.49-31.85 597.49-21.7 605.99-21.7 605.99-16.7 597.49-16.7 597.49-4.95 609.69-4.95 609.69 0 591.94 0ZM611.99 0L620.59-11.9 612.54-22.95 618.94-22.95 623.64-15.85 628.09-22.95 634.64-22.95 626.54-12.2 635.34 0 629.14 0 623.69-8.1 618.49 0 611.99 0ZM639.58 12.15L639.58-22.95 644.78-22.95 644.78-18.7Q647.53-23.55 653.38-23.55L653.38-23.55Q658.23-23.55 661.23-20.48 664.23-17.4 664.23-11.6L664.23-11.6Q664.23-8 662.76-5.25 661.28-2.5 658.76-1 656.23 0.5 653.13 0.5L653.13 0.5Q650.23 0.5 648.11-0.53 645.98-1.55 644.78-3.45L644.78-3.45 644.83 12.15 639.58 12.15ZM651.88-4.05Q655.13-4.05 656.88-6.13 658.63-8.2 658.63-11.45L658.63-11.45Q658.63-14.85 656.91-16.88 655.18-18.9 651.88-18.9L651.88-18.9Q650.08-18.9 648.51-18.03 646.93-17.15 646.01-15.53 645.08-13.9 645.08-11.75L645.08-11.75 645.08-11.4Q645.08-9.25 646.01-7.58 646.93-5.9 648.48-4.98 650.03-4.05 651.88-4.05L651.88-4.05ZM670.43 0L670.43-36.75 675.78-36.75 675.78 0 670.43 0ZM694.08 0.5Q690.53 0.5 687.78-1.1 685.03-2.7 683.53-5.45 682.03-8.2 682.03-11.55L682.03-11.55Q682.03-14.85 683.5-17.6 684.98-20.35 687.73-21.95 690.48-23.55 694.08-23.55L694.08-23.55Q697.68-23.55 700.4-21.95 703.13-20.35 704.6-17.6 706.08-14.85 706.08-11.55L706.08-11.55Q706.08-8.2 704.58-5.45 703.08-2.7 700.35-1.1 697.63 0.5 694.08 0.5L694.08 0.5ZM694.23-3.9Q697.13-3.9 698.8-6.05 700.48-8.2 700.48-11.45L700.48-11.45Q700.48-14.7 698.68-16.93 696.88-19.15 693.93-19.15L693.93-19.15Q691.08-19.15 689.35-16.95 687.63-14.75 687.63-11.45L687.63-11.45Q687.63-8.25 689.48-6.08 691.33-3.9 694.23-3.9L694.23-3.9ZM711.68 0L711.68-22.95 717.08-22.95 717.08-18.45Q717.88-20.75 719.68-22.15 721.48-23.55 723.78-23.55L723.78-23.55Q725.38-23.55 725.98-23.25L725.98-23.25 725.23-17.8Q724.78-18.1 723.28-18.1L723.28-18.1Q720.93-18.1 719-16.6 717.08-15.1 717.08-11.8L717.08-11.8 717.08 0 711.68 0ZM740.62 0.5Q736.52 0.5 733.77-1.13 731.02-2.75 729.72-5.48 728.42-8.2 728.42-11.45L728.42-11.45Q728.42-15.1 729.95-17.85 731.47-20.6 734.17-22.08 736.87-23.55 740.27-23.55L740.27-23.55Q745.57-23.55 748.15-20.63 750.72-17.7 750.72-12.4L750.72-12.4Q750.72-11.05 750.57-9.6L750.57-9.6 734.07-9.6Q734.62-6.55 736.25-5.2 737.87-3.85 740.77-3.85L740.77-3.85Q743.17-3.85 744.72-4.25 746.27-4.65 747.57-5.35L747.57-5.35 749.22-1.5Q747.97-0.7 745.82-0.1 743.67 0.5 740.62 0.5L740.62 0.5ZM734.07-13.35L745.47-13.35Q745.52-16.45 744.12-17.73 742.72-19 740.12-19L740.12-19Q734.87-19 734.07-13.35L734.07-13.35ZM789.42 0L782.62-12.75 775.82 0 774.87 0 765.22-22.95 771.02-22.95 775.97-9.6 782.52-22.95 782.72-22.95 789.32-9.7 794.27-22.95 799.97-22.95 790.37 0 789.42 0ZM804.07 0L804.07-22.95 809.67-22.95 809.67 0 804.07 0ZM806.82-27.25Q805.27-27.25 804.22-28.3 803.17-29.35 803.17-30.9L803.17-30.9Q803.17-32.3 804.22-33.3 805.27-34.3 806.82-34.3L806.82-34.3Q808.32-34.3 809.37-33.3 810.42-32.3 810.42-30.9L810.42-30.9Q810.42-29.35 809.39-28.3 808.37-27.25 806.82-27.25L806.82-27.25ZM819.16 0L819.16-18.55 815.11-18.55 815.11-22.95 819.16-22.95 819.16-32.3 824.61-33.5 824.61-22.95 829.91-22.95 829.91-18.55 824.61-18.55 824.61 0 819.16 0ZM834.56 0L834.56-36.75 839.81-36.75 839.81-22.95 839.61-18.7Q840.56-20.8 842.66-22.18 844.76-23.55 847.56-23.55L847.56-23.55Q851.11-23.55 853.01-22.08 854.91-20.6 855.56-17.95 856.21-15.3 856.21-11.05L856.21-11.05 856.21 0 850.86 0 850.86-11.1Q850.86-14 850.54-15.65 850.21-17.3 849.24-18.15 848.26-19 846.41-19L846.41-19Q844.91-19 843.39-18.1 841.86-17.2 840.86-15.48 839.86-13.75 839.86-11.4L839.86-11.4 839.86 0 834.56 0ZM882.66 0L882.66-31.85 873.26-31.85 873.26-36.75 897.71-36.75 897.71-31.85 888.21-31.85 888.21 0 882.66 0ZM909.45 0.5Q905.9 0.5 903.15-1.1 900.4-2.7 898.9-5.45 897.4-8.2 897.4-11.55L897.4-11.55Q897.4-14.85 898.88-17.6 900.35-20.35 903.1-21.95 905.85-23.55 909.45-23.55L909.45-23.55Q913.05-23.55 915.78-21.95 918.5-20.35 919.98-17.6 921.45-14.85 921.45-11.55L921.45-11.55Q921.45-8.2 919.95-5.45 918.45-2.7 915.73-1.1 913 0.5 909.45 0.5L909.45 0.5ZM909.6-3.9Q912.5-3.9 914.18-6.05 915.85-8.2 915.85-11.45L915.85-11.45Q915.85-14.7 914.05-16.93 912.25-19.15 909.3-19.15L909.3-19.15Q906.45-19.15 904.73-16.95 903-14.75 903-11.45L903-11.45Q903-8.25 904.85-6.08 906.7-3.9 909.6-3.9L909.6-3.9ZM935.15 0.5Q930.4 0.5 928.63-2.3 926.85-5.1 926.85-10.1L926.85-10.1 926.85-22.95 932.25-22.95 932.25-11.45Q932.25-8.6 932.58-7.03 932.9-5.45 933.88-4.7 934.85-3.95 936.8-3.95L936.8-3.95Q938.2-3.95 939.5-4.75 940.8-5.55 941.63-6.93 942.45-8.3 942.45-9.95L942.45-9.95 942.45-22.95 947.8-22.95 947.8 0 943.4 0 942.8-3.35Q941.55-1.4 939.68-0.45 937.8 0.5 935.15 0.5L935.15 0.5ZM954.85 0L954.85-22.95 960.25-22.95 960.25-18.45Q961.05-20.75 962.85-22.15 964.65-23.55 966.95-23.55L966.95-23.55Q968.55-23.55 969.15-23.25L969.15-23.25 968.4-17.8Q967.95-18.1 966.45-18.1L966.45-18.1Q964.1-18.1 962.17-16.6 960.25-15.1 960.25-11.8L960.25-11.8 960.25 0 954.85 0ZM973.35 0L973.35-22.95 978.95-22.95 978.95 0 973.35 0ZM976.1-27.25Q974.55-27.25 973.5-28.3 972.45-29.35 972.45-30.9L972.45-30.9Q972.45-32.3 973.5-33.3 974.55-34.3 976.1-34.3L976.1-34.3Q977.6-34.3 978.65-33.3 979.7-32.3 979.7-30.9L979.7-30.9Q979.7-29.35 978.67-28.3 977.65-27.25 976.1-27.25L976.1-27.25ZM994.34 0.5Q991.94 0.5 989.37-0.13 986.79-0.75 985.69-1.6L985.69-1.6 987.49-5.85Q990.49-3.75 994.34-3.75L994.34-3.75Q998.19-3.75 998.19-6L998.19-6Q998.19-7 997.39-7.55 996.59-8.1 994.54-8.85L994.54-8.85 992.64-9.55Q989.64-10.75 987.89-12.43 986.14-14.1 986.14-16.85L986.14-16.85Q986.14-20 988.62-21.78 991.09-23.55 995.24-23.55L995.24-23.55Q997.29-23.55 999.27-23.1 1001.24-22.65 1002.29-21.95L1002.29-21.95 1000.34-17.65Q999.69-18.3 998.27-18.78 996.84-19.25 995.09-19.25L995.09-19.25Q991.54-19.25 991.54-17.1L991.54-17.1Q991.54-15.9 992.49-15.28 993.44-14.65 995.59-13.9L995.59-13.9Q995.79-13.85 997.14-13.35L997.14-13.35Q1000.34-12.1 1001.89-10.5 1003.44-8.9 1003.44-6.4L1003.44-6.4Q1003.44-3 1000.87-1.25 998.29 0.5 994.34 0.5L994.34 0.5ZM1009.04 0L1009.04-22.95 1014.44-22.95 1014.44-18.8Q1015.54-21.15 1017.67-22.35 1019.79-23.55 1022.54-23.55L1022.54-23.55Q1028.69-23.5 1030.09-19.3L1030.09-19.3Q1031.19-21.25 1033.39-22.4 1035.59-23.55 1038.04-23.55L1038.04-23.55Q1041.64-23.55 1043.49-22.18 1045.34-20.8 1045.97-18.28 1046.59-15.75 1046.59-11.5L1046.59-11.5 1046.59 0 1041.14 0 1041.14-11.55Q1041.14-15.6 1040.32-17.35 1039.49-19.1 1037.14-19.1L1037.14-19.1Q1033.99-19.1 1032.37-16.98 1030.74-14.85 1030.74-11.4L1030.74-11.4 1030.74 0 1025.34 0 1025.34-12.35Q1025.34-15 1025.14-16.3 1024.94-17.6 1024.04-18.35 1023.14-19.1 1021.14-19.1L1021.14-19.1Q1019.39-19.1 1017.87-18.05 1016.34-17 1015.42-15.23 1014.49-13.45 1014.49-11.4L1014.49-11.4 1014.49 0 1009.04 0ZM1064.19 0.5Q1060.64 0.5 1057.89-1.1 1055.14-2.7 1053.64-5.45 1052.14-8.2 1052.14-11.55L1052.14-11.55Q1052.14-14.85 1053.61-17.6 1055.09-20.35 1057.84-21.95 1060.59-23.55 1064.19-23.55L1064.19-23.55Q1067.79-23.55 1070.51-21.95 1073.24-20.35 1074.71-17.6 1076.19-14.85 1076.19-11.55L1076.19-11.55Q1076.19-8.2 1074.69-5.45 1073.19-2.7 1070.46-1.1 1067.74 0.5 1064.19 0.5L1064.19 0.5ZM1064.34-3.9Q1067.24-3.9 1068.91-6.05 1070.59-8.2 1070.59-11.45L1070.59-11.45Q1070.59-14.7 1068.79-16.93 1066.99-19.15 1064.04-19.15L1064.04-19.15Q1061.19-19.15 1059.46-16.95 1057.74-14.75 1057.74-11.45L1057.74-11.45Q1057.74-8.25 1059.59-6.08 1061.44-3.9 1064.34-3.9L1064.34-3.9ZM1079.39 0L1089.84-16.85 1091.09-18.65 1085.54-18.5 1081.59-18.5 1081.59-22.95 1099.44-22.95 1089.09-6.05 1087.84-4.15 1093.24-4.35 1099.04-4.45 1099.04 0 1079.39 0ZM1114.68 0.5Q1111.58 0.5 1108.96-0.98 1106.33-2.45 1104.76-5.18 1103.18-7.9 1103.18-11.55L1103.18-11.55Q1103.18-15.15 1104.56-17.85 1105.93-20.55 1108.48-22.05 1111.03-23.55 1114.48-23.55L1114.48-23.55Q1116.48-23.55 1118.23-22.85 1119.98-22.15 1121.18-21.13 1122.38-20.1 1122.78-19.1L1122.78-19.1 1122.88-22.95 1128.03-22.95 1128.03 0 1122.93 0 1122.83-4.05Q1121.98-2.25 1119.73-0.88 1117.48 0.5 1114.68 0.5L1114.68 0.5ZM1115.58-4Q1118.43-4 1120.38-5.98 1122.33-7.95 1122.33-11.15L1122.33-11.15 1122.33-11.5Q1122.33-13.65 1121.43-15.35 1120.53-17.05 1118.98-18 1117.43-18.95 1115.58-18.95L1115.58-18.95Q1112.38-18.95 1110.63-16.88 1108.88-14.8 1108.88-11.5L1108.88-11.5Q1108.88-8.15 1110.61-6.08 1112.33-4 1115.58-4L1115.58-4Z" opacity="1" transform="matrix(1,0,0,1,0,0)" fill="#77d4fc" class="slogan-text-1" data-fill-palette-color="secondary" id="text-1"></path></svg></g></svg></g></svg></g></svg></g><g><svg viewBox="0 0 211.26202444799998 167.75392119173986" height="167.75392119173986" width="211.26202444799998"><g><svg xmlns="http://www.w3.org/2000/svg" xmlns:xlink="http://www.w3.org/1999/xlink" version="1.1" x="0" y="0" viewBox="2.636 11.36 84.727 67.278" enable-background="new 0 0 90 90" xml:space="preserve" height="167.75392119173986" width="211.26202444799998" class="icon-icon-0" data-fill-palette-color="accent" id="icon-0"><path d="M65.488 65.37A3.24 3.24 0 0 1 62.245 65.888 3.26 3.26 0 0 1 61.005 64.989 24.52 24.52 0 0 1 47.723 73.789C50.713 71.707 53.186 68.118 54.844 63.58H60.297C60.276 63.484 60.234 63.398 60.223 63.301L59.938 61.136H55.63C56.471 58.145 56.973 54.828 57.068 51.3H58.642L58.32 48.856H57.068A44 44 0 0 0 56.672 44.099C55.893 44.316 55.084 44.53 54.282 44.744 54.456 46.08 54.584 47.444 54.626 48.856H46.016L45.52 51.3H54.625C54.521 54.841 53.986 58.184 53.088 61.136H42.795V55.735L41.543 56.61C41.18 56.867 40.771 57.009 40.351 57.096V61.136H30.058A35 35 0 0 1 29.011 56.536C28.744 56.644 28.469 56.753 28.207 56.865 27.683 57.088 27.215 57.31 26.717 57.533 26.936 58.771 27.194 59.984 27.515 61.136H19.708V61.134A38 38 0 0 0 17.712 62.426 29 29 0 0 0 16.351 63.449C21.156 72.474 30.654 78.638 41.572 78.638 51.811 78.638 60.78 73.205 65.822 65.089zM21.114 63.58H28.302C29.963 68.118 32.432 71.707 35.423 73.789A24.54 24.54 0 0 1 21.114 63.58M40.351 73.266C36.468 72.621 33.081 68.944 30.93 63.58H40.351zM42.795 63.58H52.216C50.067 68.941 46.676 72.621 42.795 73.266z" fill="#77d4fc" data-fill-palette-color="accent"></path><path d="M87.363 24.459C83.368 21.832 75.015 23.686 65.748 27.262L49.466 11.36 43.981 11.548 57.07 30.955C51.685 33.431 46.351 36.187 41.674 38.734L34.918 33.632 32.112 33.959 39.089 42.748 39.69 53.956 42.007 52.339 43.684 44.042C48.874 42.854 54.699 41.382 60.371 39.67L63.424 62.876 67.656 59.381 69.31 36.686C78.628 33.219 86.111 29.072 87.363 24.459" fill="#77d4fc" data-fill-palette-color="accent"></path><path d="M48.527 24.071L47.179 22.072A28.7 28.7 0 0 0 41.569 21.512C27.307 21.512 15.487 32.031 13.377 45.711A87 87 0 0 1 18.398 42.21C18.768 41.113 19.187 40.037 19.706 39.016H23.639A140 140 0 0 1 28.045 36.572H21.112A24.54 24.54 0 0 1 35.422 26.363C33.83 27.473 32.39 29.02 31.135 30.901 31.332 30.838 31.528 30.771 31.739 30.748L34.545 30.421 34.597 30.42C36.294 28.503 38.244 27.236 40.349 26.888V33.682L41.964 34.903C42.246 34.752 42.513 34.619 42.793 34.468V26.888C45.166 27.281 47.353 28.821 49.189 31.173L52.355 29.668z" fill="#77d4fc" data-fill-palette-color="accent"></path><path d="M35.919 43.951L31.522 38.413C28.535 39.944 25.2 41.758 21.715 43.93 17.823 46.376 13.737 49.2 9.99 52.799 8.13 54.612 6.342 56.627 4.892 59.057 4.175 60.274 3.553 61.606 3.125 63.048 3.01 63.401 2.933 63.781 2.845 64.149 2.798 64.332 2.776 64.524 2.741 64.712L2.639 65.393 2.636 66.225 2.659 67.451C2.766 68.928 3.16 70.5 3.944 71.871 4.71 73.254 5.86 74.317 7.004 74.999 9.331 76.362 11.513 76.585 13.392 76.696 17.165 76.811 20.061 76.196 22.087 75.794A80 80 0 0 0 23.699 75.433C17.819 75.124 14.156 73.714 12.189 72.646A8 8 0 0 1 10.661 71.669 5 5 0 0 1 10.344 71.406L10.382 71.403C10.261 71.288 10.12 71.18 10.018 71.057 9.132 69.998 9.109 69.036 9.423 67.656 9.477 67.514 9.524 67.385 9.563 67.251L9.802 66.452 9.81 66.429C9.832 66.304 9.788 66.57 9.794 66.535L9.807 66.507 9.829 66.444 9.873 66.323C9.906 66.244 9.924 66.164 9.965 66.081 10.044 65.918 10.098 65.755 10.193 65.59A10.4 10.4 0 0 1 11.541 63.582C12.668 62.239 14.193 60.953 15.864 59.778 19.236 57.427 23.173 55.502 26.949 53.893 30.233 52.499 33.404 51.37 36.266 50.42z" fill="#77d4fc" data-fill-palette-color="accent"></path></svg></g></svg></g></svg></g><defs></defs></svg><rect width="395.52" height="106.93188940372733" fill="none" stroke="none" visibility="hidden"></rect></g></svg></g></svg>